<svg width="600" height="315" viewBox="0 0 600 315" fill="none" xmlns="http://www.w3.org/2000/svg">
<rect width="600" height="315" fill="#ECEAE8"/>
<path d="M275.828 113.742C270.023 118.402 265.679 124.233 262.924 131.071C260.157 137.908 259.351 145.115 260.518 152.487C261.682 159.859 264.674 166.476 269.417 172.128C274.157 177.779 280.087 181.985 287.037 184.628C293.991 187.271 301.404 187.986 309.054 186.778L340 181.883L332.11 131.996L296.201 137.674L298.94 154.997L315.858 152.322L318.088 166.413L306.722 168.21C302.684 168.849 298.759 168.414 295.051 166.927C291.343 165.441 288.18 163.115 285.664 160.029C283.145 156.943 281.54 153.326 280.899 149.274C280.258 145.222 280.67 141.286 282.11 137.572C283.553 133.859 285.835 130.674 288.912 128.116C291.981 125.559 295.582 123.935 299.62 123.296L329.986 118.493L327.062 100L296.116 104.894C288.466 106.103 281.637 109.081 275.837 113.73L275.831 113.742H275.828V113.742Z" fill="#D0CFD2"/>
<path d="M329.785 207.556C329.785 208.955 328.48 210.27 325.898 211.454C323.321 212.64 319.789 213.598 315.407 214.298C311.991 214.834 308.258 215.167 304.283 215.286C300.308 215.168 296.579 214.834 293.16 214.298C288.78 213.598 285.248 212.64 282.669 211.454C280.087 210.267 278.785 208.954 278.785 207.556C278.785 206.158 280.087 204.842 282.669 203.655C285.243 202.472 288.769 201.514 293.16 200.823L293.165 200.815C296.579 200.278 300.314 199.945 304.283 199.826C308.253 199.945 311.991 200.278 315.402 200.815L315.407 200.823C319.798 201.514 323.327 202.472 325.898 203.655C328.48 204.842 329.785 206.157 329.785 207.556Z" fill="#D0CFD2"/>
</svg>
